<svg version="1.1" id="Layer_1" xmlns="http://www.w3.org/2000/svg" xmlns:xlink="http://www.w3.org/1999/xlink" x="0px" y="0px"
	 width="100%" viewBox="0 0 512 512" enable-background="new 0 0 512 512" xml:space="preserve">
<path fill="#000000" opacity="1.000000" stroke="none" 
	d="
M277.000000,1.000002 
	C355.632446,1.000000 434.264893,1.000000 512.948669,1.000000 
	C512.948669,171.558167 512.948669,342.116364 512.948669,513.000000 
	C429.978271,513.000000 346.956116,513.000000 263.145081,512.754456 
	C267.238068,505.322052 272.430237,498.323975 276.939941,490.910767 
	C287.789581,473.075592 298.274048,455.018768 308.991058,437.102325 
	C319.605957,419.356598 330.361664,401.695099 340.988434,383.956421 
	C351.634705,366.185211 362.272125,348.407867 372.773621,330.550995 
	C380.845154,316.826019 388.617157,302.924957 396.684052,289.197235 
	C400.989868,281.869934 406.071838,274.972778 410.030121,267.473297 
	C415.900024,256.351959 420.164673,244.629532 423.835236,232.478470 
	C427.276428,221.086761 429.886017,209.811600 430.913025,197.620575 
	C431.320648,195.457718 431.932861,193.727646 431.959717,191.988525 
	C432.070282,184.829147 431.856964,177.663467 432.030426,170.506592 
	C432.438080,153.685806 429.468842,137.289459 423.778351,121.685020 
	C418.877441,108.245651 412.492889,95.251457 405.693451,82.637688 
	C401.864685,75.534874 395.869080,69.600090 390.555084,62.969452 
	C385.147736,57.675774 380.156586,52.423088 374.899414,47.451702 
	C358.676758,32.110905 340.139923,20.428307 319.177338,12.645616 
	C313.403595,10.502020 307.809021,7.616558 301.860992,6.266673 
	C294.241150,4.537380 286.341278,4.055276 278.582245,2.900352 
	C277.973999,2.809815 277.523712,1.658376 277.000000,1.000002 
z"/>
<path fill="#000000" opacity="1.000000" stroke="none" 
	d="
M248.000000,513.000000 
	C165.703003,513.000000 83.406006,513.000000 1.054502,513.000000 
	C1.054502,342.445007 1.054502,171.889984 1.054502,1.000000 
	C77.021103,1.000000 153.042709,1.000000 229.871262,1.321609 
	C228.110886,2.436647 225.594925,3.580974 222.967728,3.965704 
	C207.644135,6.209728 193.140396,11.400346 179.645004,18.482977 
	C167.262360,24.981621 155.825699,33.382412 144.380417,41.519268 
	C139.700684,44.846256 136.094513,49.683311 131.692719,53.982208 
	C119.743912,65.194595 110.731537,78.191429 102.929192,92.160042 
	C88.245277,118.448792 81.588783,146.860870 81.371017,176.678940 
	C81.284332,188.549271 83.386230,200.479507 85.021973,212.309158 
	C88.188927,235.212448 96.998528,256.173615 108.104347,276.236603 
	C110.766113,281.045135 114.016075,285.528076 117.010124,290.519470 
	C118.220123,292.968262 119.402756,295.065765 120.612930,297.147278 
	C129.874969,313.078003 139.064423,329.051605 148.427185,344.922943 
	C161.068298,366.351593 173.815887,387.717682 186.578323,409.074402 
	C190.620407,415.838379 194.856247,422.486542 199.005722,429.547302 
	C202.585907,436.060730 206.145508,442.225281 209.745270,448.366302 
	C219.163391,464.433105 228.579514,480.501129 238.038528,496.543884 
	C241.295013,502.066986 244.675934,507.516724 248.000000,513.000000 
z"/>
<path fill="#00DF76" opacity="1.000000" stroke="none" 
	d="
M430.848419,198.049194 
	C429.886017,209.811600 427.276428,221.086761 423.835236,232.478470 
	C420.164673,244.629532 415.900024,256.351959 410.030121,267.473297 
	C406.071838,274.972778 400.989868,281.869934 396.684052,289.197235 
	C388.617157,302.924957 380.845154,316.826019 372.773621,330.550995 
	C362.272125,348.407867 351.634705,366.185211 340.988434,383.956421 
	C330.361664,401.695099 319.605957,419.356598 308.991058,437.102325 
	C298.274048,455.018768 287.789581,473.075592 276.939941,490.910767 
	C272.430237,498.323975 267.238068,505.322052 262.678101,512.754456 
	C260.958344,513.000000 258.916656,513.000000 256.381683,512.534058 
	C255.872421,503.921356 255.852020,495.774628 255.841339,487.627869 
	C255.791153,449.388947 255.743637,411.149994 255.796082,372.688171 
	C255.897003,372.465240 256.002625,371.987122 256.306335,371.850342 
	C312.944550,315.340302 369.276154,258.964142 425.628113,202.608322 
	C427.257935,200.978348 429.103485,199.564056 430.848419,198.049194 
z"/>
<path fill="#0180FF" opacity="1.000000" stroke="none" 
	d="
M276.531464,1.000002 
	C277.523712,1.658376 277.973999,2.809815 278.582245,2.900352 
	C286.341278,4.055276 294.241150,4.537380 301.860992,6.266673 
	C307.809021,7.616558 313.403595,10.502020 319.177338,12.645616 
	C340.139923,20.428307 358.676758,32.110905 374.899414,47.451702 
	C380.156586,52.423088 385.147736,57.675774 390.437073,63.270065 
	C387.458344,66.437286 384.323425,69.158386 381.144623,71.827232 
	C360.018707,89.564072 338.883362,107.289742 317.474243,124.854568 
	C300.657379,106.941422 280.136810,98.032181 255.959839,96.660141 
	C255.941025,64.456642 255.970520,32.728321 256.000000,1.000000 
	C262.687653,1.000000 269.375275,1.000000 276.531464,1.000002 
z"/>
<path fill="#7FB9FE" opacity="1.000000" stroke="none" 
	d="
M255.531342,1.000000 
	C255.970520,32.728321 255.941025,64.456642 255.984192,96.869911 
	C256.056824,97.554855 255.993149,97.972412 255.533401,97.906006 
	C251.098114,98.061317 247.077957,97.979980 243.154770,98.557434 
	C226.556976,101.000458 212.277481,108.416885 199.409912,119.155457 
	C177.925232,98.151520 156.732651,77.313744 135.511307,56.505264 
	C134.469360,55.483585 133.176147,54.718136 131.999939,53.833378 
	C136.094513,49.683311 139.700684,44.846256 144.380417,41.519268 
	C155.825699,33.382412 167.262360,24.981621 179.645004,18.482977 
	C193.140396,11.400346 207.644135,6.209728 222.967728,3.965704 
	C225.594925,3.580974 228.110886,2.436647 230.339111,1.321609 
	C238.354233,1.000000 246.708466,1.000000 255.531342,1.000000 
z"/>
<path fill="#B1EA3F" opacity="1.000000" stroke="none" 
	d="
M255.695175,372.911072 
	C255.743637,411.149994 255.791153,449.388947 255.841339,487.627869 
	C255.852020,495.774628 255.872421,503.921356 255.944183,512.534058 
	C253.629440,513.000000 251.258896,513.000000 248.444168,513.000000 
	C244.675934,507.516724 241.295013,502.066986 238.038528,496.543884 
	C228.579514,480.501129 219.163391,464.433105 209.745270,448.366302 
	C206.145508,442.225281 202.585907,436.060730 199.283752,429.353333 
	C218.271378,410.170197 236.983276,391.540649 255.695175,372.911072 
z"/>
<path fill="#FEC125" opacity="1.000000" stroke="none" 
	d="
M317.751099,125.019043 
	C338.883362,107.289742 360.018707,89.564072 381.144623,71.827232 
	C384.323425,69.158386 387.458344,66.437286 390.731567,63.439743 
	C395.869080,69.600090 401.864685,75.534874 405.693451,82.637688 
	C412.492889,95.251457 418.877441,108.245651 423.778351,121.685020 
	C429.468842,137.289459 432.438080,153.685806 432.030426,170.506592 
	C431.856964,177.663467 432.070282,184.829147 431.959717,191.988525 
	C431.932861,193.727646 431.320648,195.457718 430.913025,197.620575 
	C429.103485,199.564056 427.257935,200.978348 425.628113,202.608322 
	C369.276154,258.964142 312.944550,315.340302 256.296539,371.382904 
	C255.963348,334.782043 255.943665,298.511841 256.380829,262.156189 
	C260.973175,261.723785 265.135925,261.572418 269.239929,260.999939 
	C314.333344,254.709351 346.484497,207.721252 336.521179,163.104095 
	C333.327911,148.804214 326.705414,136.383881 317.751099,125.019043 
z"/>
<path fill="#FF0225" opacity="1.000000" stroke="none" 
	d="
M131.692719,53.982208 
	C133.176147,54.718136 134.469360,55.483585 135.511307,56.505264 
	C156.732651,77.313744 177.925232,98.151520 199.213593,119.385651 
	C183.683472,135.283112 174.692703,153.800293 173.631500,175.957748 
	C172.669815,196.037125 178.740189,213.923019 190.191895,230.367462 
	C183.572403,235.927719 177.181519,241.235672 170.739075,246.480270 
	C152.836029,261.054504 134.911530,275.602448 116.995514,290.160767 
	C114.016075,285.528076 110.766113,281.045135 108.104347,276.236603 
	C96.998528,256.173615 88.188927,235.212448 85.021973,212.309158 
	C83.386230,200.479507 81.284332,188.549271 81.371017,176.678940 
	C81.588783,146.860870 88.245277,118.448792 102.929192,92.160042 
	C110.731537,78.191429 119.743912,65.194595 131.692719,53.982208 
z"/>
<path fill="#FFDA00" opacity="1.000000" stroke="none" 
	d="
M117.010124,290.519470 
	C134.911530,275.602448 152.836029,261.054504 170.739075,246.480270 
	C177.181519,241.235672 183.572403,235.927719 190.448883,230.540100 
	C207.764450,250.957352 229.265564,261.865143 255.957367,261.969849 
	C255.891556,262.044800 255.923965,262.241669 255.923965,262.241669 
	C255.943665,298.511841 255.963348,334.782043 255.992828,371.519653 
	C256.002625,371.987122 255.897003,372.465240 255.796082,372.688171 
	C236.983276,391.540649 218.271378,410.170197 199.281448,428.993713 
	C194.856247,422.486542 190.620407,415.838379 186.578323,409.074402 
	C173.815887,387.717682 161.068298,366.351593 148.427185,344.922943 
	C139.064423,329.051605 129.874969,313.078003 120.612930,297.147278 
	C119.402756,295.065765 118.220123,292.968262 117.010124,290.519470 
z"/>
<path fill="#FFF5F5" opacity="1.000000" stroke="none" 
	d="
M317.474243,124.854568 
	C326.705414,136.383881 333.327911,148.804214 336.521179,163.104095 
	C346.484497,207.721252 314.333344,254.709351 269.239929,260.999939 
	C265.135925,261.572418 260.973175,261.723785 256.380829,262.156189 
	C255.923965,262.241669 255.891556,262.044800 255.952698,261.508057 
	C256.006958,206.638351 256.000031,152.305374 255.993149,97.972412 
	C255.993149,97.972412 256.056824,97.554855 256.032471,97.345093 
	C280.136810,98.032181 300.657379,106.941422 317.474243,124.854568 
z"/>
<path fill="#FFFFFE" opacity="1.000000" stroke="none" 
	d="
M255.533401,97.906006 
	C256.000031,152.305374 256.006958,206.638351 256.018494,261.433105 
	C229.265564,261.865143 207.764450,250.957352 190.653931,230.258881 
	C178.740189,213.923019 172.669815,196.037125 173.631500,175.957748 
	C174.692703,153.800293 183.683472,135.283112 199.499939,119.557655 
	C212.277481,108.416885 226.556976,101.000458 243.154770,98.557434 
	C247.077957,97.979980 251.098114,98.061317 255.533401,97.906006 
z"/>
</svg>